<?xml version="1.0" encoding="UTF-8" standalone="no"?>
<!DOCTYPE svg PUBLIC "-//W3C//DTD SVG 1.1//EN" "http://www.w3.org/Graphics/SVG/1.1/DTD/svg11.dtd">
<svg version="1.1" xmlns="http://www.w3.org/2000/svg" xmlns:xlink="http://www.w3.org/1999/xlink" preserveAspectRatio="xMidYMid meet" viewBox="0 0 515 515" width="515" height="515"><defs><path d="M328.36 257.14C345.57 257.34 354.37 257.45 354.74 257.45C355.3 257.46 354.58 277.39 354.93 277.74C356.19 278.99 379.46 278.5 380 278.56C380.46 278.61 380.21 295.91 380.5 296.05C382.25 296.89 396.46 306.72 396.96 307.09C399.35 308.88 419.66 307.75 420.18 307.77C420.52 307.79 420.78 313.78 420.97 325.75C422.05 326.45 427.42 330 437.08 336.38L495.35 334.39L504.74 320.75L484.62 276.56L310.16 148.51L246.79 200.19C295.74 234.36 322.93 253.34 328.36 257.14Z" id="b4f1ZmAEy"></path><path d="M328.36 257.14C345.57 257.34 354.37 257.45 354.74 257.45C355.3 257.46 354.58 277.39 354.93 277.74C356.19 278.99 379.46 278.5 380 278.56C380.46 278.61 380.21 295.91 380.5 296.05C382.25 296.89 396.46 306.72 396.96 307.09C399.35 308.88 419.66 307.75 420.18 307.77C420.52 307.79 420.78 313.78 420.97 325.75C422.05 326.45 427.42 330 437.08 336.38L495.35 334.39L504.74 320.75L484.62 276.56L310.16 148.51L246.79 200.19C295.74 234.36 322.93 253.34 328.36 257.14Z" id="b4MsBeIFvC"></path><path d="M461.76 301.45L289.76 183.45" id="a1bovqFrOS"></path><path d="M225.69 18.15L229.66 18.71L233.58 19.43L237.44 20.3L241.24 21.33L244.99 22.49L248.67 23.8L252.28 25.24L255.82 26.82L259.28 28.54L262.67 30.38L265.98 32.35L269.21 34.44L272.34 36.65L275.39 38.97L278.34 41.41L281.2 43.96L283.96 46.61L286.61 49.37L289.16 52.23L291.6 55.18L293.92 58.23L296.13 61.36L298.22 64.59L300.19 67.9L302.03 71.28L303.74 74.75L305.33 78.29L306.77 81.9L308.08 85.58L309.24 89.33L310.26 93.13L311.14 96.99L311.86 100.91L312.42 104.88L312.83 108.9L313.08 112.96L313.16 117.07L313.08 121.17L312.83 125.23L312.42 129.25L311.86 133.22L311.14 137.14L310.26 141L309.24 144.81L308.08 148.55L306.77 152.23L305.33 155.84L303.74 159.38L302.03 162.85L300.19 166.23L298.22 169.54L296.13 172.77L293.92 175.9L291.6 178.95L289.16 181.9L286.61 184.76L283.96 187.52L281.2 190.17L278.34 192.72L275.39 195.15L272.34 197.48L269.21 199.69L265.98 201.78L262.67 203.75L259.28 205.59L255.82 207.3L252.28 208.88L248.67 210.33L244.99 211.63L241.24 212.8L237.44 213.82L233.58 214.69L229.66 215.41L225.69 215.98L221.67 216.39L217.61 216.63L213.5 216.72L209.4 216.63L205.33 216.39L201.32 215.98L197.35 215.41L193.43 214.69L189.57 213.82L185.76 212.8L182.02 211.63L178.34 210.33L174.73 208.88L171.19 207.3L167.72 205.59L164.33 203.75L161.02 201.78L157.8 199.69L154.66 197.48L151.62 195.15L148.66 192.72L145.81 190.17L143.05 187.52L140.39 184.76L137.85 181.9L135.41 178.95L133.08 175.9L130.87 172.77L128.78 169.54L126.82 166.23L124.97 162.85L123.26 159.38L121.68 155.84L120.23 152.23L118.93 148.55L117.76 144.81L116.74 141L115.87 137.14L115.15 133.22L114.58 129.25L114.17 125.23L113.93 121.17L113.84 117.07L113.93 112.96L114.17 108.9L114.58 104.88L115.15 100.91L115.87 96.99L116.74 93.13L117.76 89.33L118.93 85.58L120.23 81.9L121.68 78.29L123.26 74.75L124.97 71.28L126.82 67.9L128.78 64.59L130.87 61.36L133.08 58.23L135.41 55.18L137.85 52.23L140.39 49.37L143.05 46.61L145.81 43.96L148.66 41.41L151.62 38.97L154.66 36.65L157.8 34.44L161.02 32.35L164.33 30.38L167.72 28.54L171.19 26.82L174.73 25.24L178.34 23.8L182.02 22.49L185.76 21.33L189.57 20.3L193.43 19.43L197.35 18.71L201.32 18.15L205.33 17.74L209.4 17.49L213.5 17.41L217.61 17.49L221.67 17.74L221.67 17.74L225.69 18.15ZM182.99 70L181.73 70.22L180.48 70.5L179.26 70.84L178.06 71.23L176.88 71.68L175.74 72.18L174.62 72.73L173.54 73.34L172.48 73.99L171.46 74.69L170.47 75.43L169.52 76.22L168.61 77.05L167.74 77.92L166.91 78.83L166.12 79.78L165.38 80.77L164.68 81.79L164.03 82.85L163.42 83.93L162.87 85.05L162.37 86.19L161.92 87.37L161.53 88.57L161.19 89.79L160.91 91.04L160.69 92.3L160.54 93.59L160.44 94.89L160.41 96.22L160.44 97.54L160.54 98.84L160.69 100.13L160.91 101.4L161.19 102.64L161.53 103.87L161.92 105.07L162.37 106.24L162.87 107.38L163.42 108.5L164.03 109.59L164.68 110.64L165.38 111.66L166.12 112.65L166.91 113.6L167.74 114.51L168.61 115.38L169.52 116.21L170.47 117L171.46 117.75L172.48 118.44L173.54 119.1L174.62 119.7L175.74 120.25L176.88 120.75L178.06 121.2L179.26 121.59L180.48 121.93L181.73 122.21L182.99 122.43L184.28 122.59L185.58 122.68L186.91 122.72L188.23 122.68L189.53 122.59L190.82 122.43L192.09 122.21L193.33 121.93L194.56 121.59L195.76 121.2L196.93 120.75L198.07 120.25L199.19 119.7L200.28 119.1L201.33 118.44L202.35 117.75L203.34 117L204.29 116.21L205.2 115.38L206.07 114.51L206.9 113.6L207.69 112.65L208.44 111.66L209.13 110.64L209.79 109.59L210.39 108.5L210.94 107.38L211.44 106.24L211.89 105.07L212.28 103.87L212.62 102.64L212.9 101.4L213.12 100.13L213.28 98.84L213.37 97.54L213.41 96.22L213.37 94.89L213.28 93.59L213.12 92.3L212.9 91.04L212.62 89.79L212.28 88.57L211.89 87.37L211.44 86.19L210.94 85.05L210.39 83.93L209.79 82.85L209.13 81.79L208.44 80.77L207.69 79.78L206.9 78.83L206.07 77.92L205.2 77.05L204.29 76.22L203.34 75.43L202.35 74.69L201.33 73.99L200.28 73.34L199.19 72.73L198.07 72.18L196.93 71.68L195.76 71.23L194.56 70.84L193.33 70.5L192.09 70.22L190.82 70L189.53 69.85L188.23 69.75L186.91 69.72L185.58 69.75L184.28 69.85L184.28 69.85L182.99 70Z" id="gxzgJVY5v"></path><path d="M213.41 97.44C213.41 111.08 202.33 122.16 188.68 122.16C175.04 122.16 163.96 111.08 163.96 97.44C163.96 83.79 175.04 72.72 188.68 72.72C202.33 72.72 213.41 83.79 213.41 97.44Z" id="emDWu3MbY"></path><path d="M189.79 266.79C172.58 266.59 163.78 266.48 163.41 266.48C162.85 266.47 163.57 246.54 163.22 246.19C161.96 244.94 138.69 245.43 138.15 245.37C137.69 245.32 137.94 228.02 137.65 227.88C135.9 227.04 121.69 217.21 121.19 216.84C118.8 215.05 98.49 216.18 97.97 216.16C97.63 216.14 97.37 210.15 97.18 198.18C96.1 197.47 90.73 193.93 81.07 187.55L22.8 189.54L13.41 203.18L33.53 247.37L207.99 375.42L271.36 323.74C222.41 289.57 195.22 270.59 189.79 266.79Z" id="btqQ2ak59"></path><path d="M213.5 16.41C158.5 16.41 113.84 61.06 113.84 116.06C113.84 171.06 158.5 215.72 213.5 215.72C268.5 215.72 313.16 171.06 313.16 116.06C313.16 61.06 268.5 16.41 213.5 16.41Z" id="aCS6JR5Jo"></path><path d="M189.79 266.79C172.58 266.59 163.78 266.48 163.41 266.48C162.85 266.47 163.57 246.54 163.22 246.19C161.96 244.94 138.69 245.43 138.15 245.37C137.69 245.32 137.94 228.02 137.65 227.88C135.9 227.04 121.69 217.21 121.19 216.84C118.8 215.05 98.49 216.18 97.97 216.16C97.63 216.14 97.37 210.15 97.18 198.18C96.1 197.47 90.73 193.93 81.07 187.55L22.8 189.54L13.41 203.18L33.53 247.37L207.99 375.42L271.36 323.74C222.41 289.57 195.22 270.59 189.79 266.79Z" id="aTCx2eAu9"></path><path d="M56.39 222.48L228.39 340.48" id="ieWUFel2T"></path><path d="M365.07 423.02L364.5 424.26L363.91 425.5L363.3 426.72L362.68 427.93L362.04 429.14L361.38 430.33L360.71 431.52L360.02 432.69L359.32 433.85L358.6 435L357.87 436.15L357.12 437.28L356.35 438.4L355.57 439.51L354.77 440.6L353.96 441.69L353.13 442.76L352.29 443.83L351.43 444.88L350.56 445.91L349.68 446.94L348.78 447.95L347.86 448.96L346.94 449.94L345.99 450.92L345.04 451.88L344.07 452.83L343.09 453.77L342.09 454.69L341.08 455.6L340.06 456.49L339.02 457.37L337.97 458.24L336.91 459.09L335.84 459.93L334.75 460.75L333.65 461.56L332.54 462.36L331.42 463.14L330.29 463.9L269.22 504.38L185.38 433.86L227.9 340.5L313.07 282.05L396.91 352.57L365.07 423.02ZM281.43 454.66L281.61 454.81L281.79 454.94L281.98 455.07L282.16 455.2L282.35 455.31L282.55 455.42L282.75 455.52L282.94 455.62L283.15 455.7L283.35 455.79L283.56 455.86L283.77 455.93L283.97 455.98L284.19 456.04L284.4 456.08L284.61 456.12L284.83 456.15L285.04 456.17L285.26 456.19L285.47 456.2L285.69 456.2L285.91 456.2L286.12 456.19L286.34 456.17L286.56 456.14L286.77 456.11L286.98 456.07L287.2 456.02L287.41 455.97L287.62 455.91L287.83 455.84L288.03 455.76L288.24 455.68L288.44 455.59L288.64 455.49L288.84 455.38L289.03 455.27L289.22 455.15L289.41 455.03L289.6 454.89L319.98 432.13L320.37 431.84L320.75 431.55L321.12 431.25L321.5 430.94L321.87 430.64L322.23 430.32L322.59 430.01L322.95 429.69L323.31 429.36L323.66 429.04L324 428.7L324.34 428.37L324.68 428.03L325.02 427.69L325.35 427.34L325.67 426.99L326 426.63L326.32 426.28L326.63 425.91L326.94 425.55L327.24 425.18L327.55 424.81L327.84 424.43L328.14 424.05L328.42 423.67L328.71 423.28L328.99 422.89L329.26 422.5L329.53 422.11L329.8 421.71L330.06 421.3L330.32 420.9L330.57 420.49L330.82 420.08L331.06 419.66L331.3 419.25L331.53 418.83L331.76 418.4L331.99 417.98L332.21 417.55L348.74 384.77L348.85 384.55L348.95 384.32L349.04 384.1L349.12 383.86L349.2 383.63L349.27 383.4L349.33 383.17L349.38 382.93L349.42 382.69L349.45 382.46L349.48 382.22L349.5 381.98L349.51 381.74L349.51 381.51L349.51 381.27L349.49 381.03L349.47 380.8L349.44 380.56L349.41 380.33L349.36 380.1L349.31 379.87L349.25 379.64L349.19 379.41L349.11 379.19L349.03 378.96L348.94 378.74L348.85 378.53L348.75 378.31L348.64 378.1L348.52 377.89L348.39 377.69L348.26 377.49L348.12 377.29L347.98 377.1L347.82 376.91L347.66 376.73L347.49 376.55L347.32 376.37L347.14 376.2L346.95 376.04L319.41 352.88L253.54 431.2L281.43 454.66Z" id="c1BYirixk6"></path></defs><g><g><g><use xlink:href="#b4f1ZmAEy" opacity="1" fill="#7bb8f0" fill-opacity="1"></use><g><use xlink:href="#b4f1ZmAEy" opacity="1" fill-opacity="0" stroke="#000000" stroke-width="1" stroke-opacity="0"></use></g></g><g><use xlink:href="#b4MsBeIFvC" opacity="1" fill="#000000" fill-opacity="0"></use><g><use xlink:href="#b4MsBeIFvC" opacity="1" fill-opacity="0" stroke="#1d79b0" stroke-width="8" stroke-opacity="1"></use></g></g><g><use xlink:href="#a1bovqFrOS" opacity="1" fill="#000000" fill-opacity="0"></use><g><use xlink:href="#a1bovqFrOS" opacity="1" fill-opacity="0" stroke="#5595bc" stroke-width="8" stroke-opacity="1"></use></g></g><g><use xlink:href="#gxzgJVY5v" opacity="1" fill="#7bb8f0" fill-opacity="1"></use><g><use xlink:href="#gxzgJVY5v" opacity="1" fill-opacity="0" stroke="#000000" stroke-width="1" stroke-opacity="0"></use></g></g><g><g><use xlink:href="#emDWu3MbY" opacity="1" fill-opacity="0" stroke="#1d79b0" stroke-width="8" stroke-opacity="1"></use></g></g><g><use xlink:href="#btqQ2ak59" opacity="1" fill="#000000" fill-opacity="0"></use><g><use xlink:href="#btqQ2ak59" opacity="1" fill-opacity="0" stroke="#e01616" stroke-width="8" stroke-opacity="1"></use></g></g><g><use xlink:href="#aCS6JR5Jo" opacity="1" fill="#000000" fill-opacity="0"></use><g><use xlink:href="#aCS6JR5Jo" opacity="1" fill-opacity="0" stroke="#1d79b0" stroke-width="8" stroke-opacity="1"></use></g></g><g><use xlink:href="#aTCx2eAu9" opacity="1" fill="#ec4444" fill-opacity="1"></use><g><use xlink:href="#aTCx2eAu9" opacity="1" fill-opacity="0" stroke="#000000" stroke-width="1" stroke-opacity="0"></use></g></g><g><use xlink:href="#ieWUFel2T" opacity="1" fill="#000000" fill-opacity="0"></use><g><use xlink:href="#ieWUFel2T" opacity="1" fill-opacity="0" stroke="#ae3735" stroke-width="8" stroke-opacity="1"></use></g></g><g><use xlink:href="#c1BYirixk6" opacity="1" fill="#ec4444" fill-opacity="1"></use><g><use xlink:href="#c1BYirixk6" opacity="1" fill-opacity="0" stroke="#e01616" stroke-width="6" stroke-opacity="1"></use></g></g></g></g></svg>